<svg width="1280" height="720" viewBox="0 0 1280 720" xmlns="http://www.w3.org/2000/svg">
  <rect width="1280" height="720" fill="#2e2816"/>
  <g fill="#6a5a34">
    <rect x="0" y="0" width="1280" height="32"/>
    <rect x="0" y="688" width="1280" height="32"/>
    <rect x="0" y="0" width="32" height="720"/>
    <rect x="1248" y="0" width="32" height="720"/>
    <rect x="256" y="192" width="768" height="32"/>
    <rect x="256" y="512" width="768" height="32"/>
    <rect x="256" y="224" width="32" height="288"/>
    <rect x="992" y="224" width="32" height="288"/>
  </g>

  <rect x="1100" y="300" width="100" height="120" fill="#b8a44f" stroke="#f0e4ac" stroke-width="4"/>
  <rect x="1106" y="306" width="88" height="10" fill="#fff4ce" opacity="0.72"/>

  <g transform="translate(640,360)">
    <rect x="-20" y="-20" width="40" height="40" fill="#59634f"/>
    <rect x="-16" y="-17" width="32" height="3" fill="#eff5da"/>
    <rect x="-12" y="-11" width="10" height="8" fill="#d6dfc5"/>
    <rect x="2" y="-11" width="10" height="8" fill="#d6dfc5"/>
    <rect x="-7" y="-2" width="14" height="12" fill="#aab89e"/>
    <rect x="-4" y="-6" width="8" height="2" fill="#d9e8ff"/>
  </g>

  <g>
    <circle cx="450" cy="280" r="15" fill="#983636"/>
    <rect x="436" y="267" width="28" height="3" fill="#ffb5b5"/>

    <circle cx="500" cy="430" r="15" fill="#983636"/>
    <rect x="486" y="417" width="28" height="3" fill="#ffb5b5"/>

    <circle cx="740" cy="280" r="15" fill="#983636"/>
    <rect x="726" y="267" width="28" height="3" fill="#ffb5b5"/>

    <circle cx="810" cy="430" r="15" fill="#983636"/>
    <rect x="796" y="417" width="28" height="3" fill="#ffb5b5"/>

    <circle cx="940" cy="360" r="15" fill="#983636"/>
    <rect x="926" y="347" width="28" height="3" fill="#ffb5b5"/>
  </g>

  <g fill="#ea7f7f">
    <circle cx="905" cy="353" r="4"/>
    <circle cx="888" cy="349" r="4"/>
    <circle cx="870" cy="344" r="4"/>
  </g>

  <rect x="972" y="18" width="290" height="165" fill="#0e1012" stroke="#bfbfbf" stroke-width="2" opacity="0.95"/>
  <rect x="988" y="34" width="258" height="133" fill="#1b1f25"/>
  <rect x="1224" y="80" width="8" height="8" fill="#f0f0f0"/>
  <rect x="1052" y="108" width="4" height="4" fill="#c75353"/>
  <rect x="1114" y="72" width="4" height="4" fill="#c75353"/>
  <rect x="1201" y="124" width="4" height="4" fill="#c75353"/>
  <rect x="1184" y="96" width="5" height="5" fill="#d6e67a"/>

  <rect x="0" y="0" width="1280" height="90" fill="#101216" opacity="0.93"/>
  <text x="24" y="42" fill="#e8e8e8" style="font-size:30px;font-family:monospace;">TERRA - THE WARNING</text>
  <text x="24" y="74" fill="#e8e8e8" style="font-size:24px;font-family:monospace;">HP 62       REACH RELAY 0/1</text>
</svg>
