<svg width="1280" height="720" viewBox="0 0 1280 720" xmlns="http://www.w3.org/2000/svg">
  <rect width="1280" height="720" fill="#211615"/>
  <g opacity="0.88">
    <rect x="0" y="0" width="1280" height="32" fill="#3d2323"/>
    <rect x="0" y="688" width="1280" height="32" fill="#3d2323"/>
    <rect x="0" y="0" width="32" height="720" fill="#3d2323"/>
    <rect x="1248" y="0" width="32" height="720" fill="#3d2323"/>
  </g>

  <g fill="#4a2929" opacity="0.95">
    <rect x="288" y="64" width="32" height="592"/>
    <rect x="672" y="64" width="32" height="592"/>
    <rect x="352" y="192" width="832" height="32"/>
    <rect x="352" y="512" width="832" height="32"/>
  </g>

  <rect x="1100" y="300" width="100" height="120" fill="#b9c95f" stroke="#edf4b0" stroke-width="4"/>
  <rect x="1106" y="306" width="88" height="10" fill="#f5ffd2" opacity="0.75"/>

  <g transform="translate(232,344)">
    <rect x="0" y="0" width="38" height="38" fill="#525c4c"/>
    <rect x="4" y="3" width="30" height="3" fill="#eef5d7"/>
    <rect x="7" y="8" width="10" height="8" fill="#d6dfc5"/>
    <rect x="21" y="8" width="10" height="8" fill="#d6dfc5"/>
    <rect x="11" y="17" width="16" height="13" fill="#a9b79d"/>
    <rect x="14" y="12" width="10" height="2" fill="#e4ecff"/>
  </g>

  <path d="M292 355 A65 65 0 0 1 346 305" fill="none" stroke="#ffe68c" stroke-width="10" stroke-linecap="round" opacity="0.85"/>
  <circle cx="338" cy="312" r="12" fill="#ffe98e" opacity="0.88"/>
  <rect x="300" y="270" width="104" height="22" fill="#101216" opacity="0.9"/>
  <text x="306" y="286" fill="#ffe68c" style="font-size:14px;font-family:monospace;">SWORD ARC</text>

  <rect x="352" y="300" width="34" height="34" fill="#8d2f8f"/>
  <rect x="352" y="300" width="34" height="3" fill="#e2b3ff"/>
  <rect x="356" y="340" width="138" height="22" fill="#101216" opacity="0.9"/>
  <text x="362" y="356" fill="#f0d6ff" style="font-size:14px;font-family:monospace;">KNOCKBACK PUSH</text>

  <rect x="426" y="334" width="34" height="34" fill="#9db5df"/>
  <rect x="426" y="334" width="34" height="3" fill="#f5f8ff"/>

  <rect x="492" y="224" width="34" height="34" fill="#8d2f8f"/>
  <rect x="492" y="224" width="34" height="3" fill="#e2b3ff"/>

  <g>
    <rect x="870" y="255" width="30" height="30" fill="#9c3838"/>
    <rect x="870" y="255" width="30" height="3" fill="#ffb9b9"/>

    <rect x="960" y="470" width="30" height="30" fill="#9c3838"/>
    <rect x="960" y="470" width="30" height="3" fill="#ffb9b9"/>
  </g>

  <g fill="#f07b7b">
    <circle cx="548" cy="336" r="4"/>
    <circle cx="564" cy="328" r="4"/>
    <circle cx="580" cy="322" r="4"/>
    <circle cx="596" cy="318" r="4"/>
  </g>

  <rect x="970" y="18" width="292" height="168" fill="#0e1012" stroke="#bfbfbf" stroke-width="2" opacity="0.95"/>
  <rect x="986" y="34" width="260" height="136" fill="#1b1f25"/>
  <rect x="992" y="40" width="106" height="18" fill="#0e1012" opacity="0.95"/>
  <text x="998" y="53" fill="#d9ea7a" style="font-size:12px;font-family:monospace;">MINIMAP AGGRO</text>
  <rect x="1227" y="96" width="8" height="8" fill="#f0f0f0"/>
  <rect x="1074" y="106" width="4" height="4" fill="#c75353"/>
  <rect x="1139" y="78" width="4" height="4" fill="#c75353"/>
  <rect x="1183" y="126" width="4" height="4" fill="#c75353"/>
  <rect x="1020" y="118" width="4" height="4" fill="#c75353"/>
  <rect x="1048" y="84" width="4" height="4" fill="#9f6bdf"/>
  <rect x="1096" y="142" width="4" height="4" fill="#9db5df"/>
  <rect x="1200" y="90" width="5" height="5" fill="#d9ea7a"/>

  <rect x="0" y="0" width="1280" height="90" fill="#101216" opacity="0.93"/>
  <text x="24" y="42" fill="#e8e8e8" style="font-size:30px;font-family:monospace;">ISTVAAN V - BROKEN LOYALTY</text>
  <text x="24" y="74" fill="#e8e8e8" style="font-size:24px;font-family:monospace;">HP 93       REACH EXTRACTION 0/1   KNOCKBACK HIT!</text>
</svg>
