<svg width="1280" height="720" viewBox="0 0 1280 720" xmlns="http://www.w3.org/2000/svg">
  <rect width="1280" height="720" fill="#221717"/>
  <g opacity="0.85">
    <rect x="0" y="0" width="1280" height="32" fill="#3d2323"/>
    <rect x="0" y="688" width="1280" height="32" fill="#3d2323"/>
    <rect x="0" y="0" width="32" height="720" fill="#3d2323"/>
    <rect x="1248" y="0" width="32" height="720" fill="#3d2323"/>
  </g>
  <g fill="#4a2929" opacity="0.9">
    <rect x="288" y="64" width="32" height="592"/>
    <rect x="672" y="64" width="32" height="592"/>
    <rect x="352" y="192" width="832" height="32"/>
    <rect x="352" y="512" width="832" height="32"/>
  </g>

  <rect x="1100" y="300" width="100" height="120" fill="#b9c95f" stroke="#e4ef9a" stroke-width="4"/>

  <g transform="translate(220,345)">
    <rect x="0" y="0" width="36" height="36" fill="#d8dce1"/>
    <rect x="7" y="7" width="22" height="22" fill="#7f9141"/>
  </g>

  <g fill="#a33d3d">
    <rect x="460" y="220" width="28" height="28"/>
    <rect x="520" y="430" width="28" height="28"/>
    <rect x="870" y="255" width="28" height="28"/>
    <rect x="960" y="470" width="28" height="28"/>
  </g>

  <rect x="0" y="0" width="1280" height="90" fill="#101216" opacity="0.93"/>
  <text x="24" y="42" fill="#e8e8e8" style="font-size:30px;font-family:monospace;">ISTVAAN V - BROKEN LOYALTY</text>
  <text x="24" y="74" fill="#e8e8e8" style="font-size:24px;font-family:monospace;">HP 100      REACH EXTRACTION 0/1</text>
</svg>
