<svg width="960" height="320" viewBox="0 0 960 320" xmlns="http://www.w3.org/2000/svg">
  <defs>
    <linearGradient id="bg" x1="0" y1="0" x2="1" y2="1">
      <stop offset="0%" stop-color="#111419"/>
      <stop offset="100%" stop-color="#222a34"/>
    </linearGradient>
    <linearGradient id="gold" x1="0" y1="0" x2="1" y2="0">
      <stop offset="0%" stop-color="#d8b56c"/>
      <stop offset="100%" stop-color="#f2e2ad"/>
    </linearGradient>
  </defs>

  <rect x="0" y="0" width="960" height="320" fill="url(#bg)"/>
  <rect x="20" y="20" width="920" height="280" fill="none" stroke="#8c6d35" stroke-width="3"/>

  <g transform="translate(62,64)">
    <path d="M80 0 L142 34 L142 98 C142 150 111 198 80 224 C49 198 18 150 18 98 L18 34 Z" fill="#303a45" stroke="#c9a45f" stroke-width="4"/>
    <path d="M80 30 L111 47 L111 99 C111 132 95 162 80 180 C65 162 49 132 49 99 L49 47 Z" fill="#7c8a5c"/>
    <path d="M80 64 L96 80 L80 152 L64 80 Z" fill="#d3d9df"/>
    <circle cx="80" cy="78" r="10" fill="#d6b362"/>
  </g>

  <text x="250" y="130" fill="url(#gold)" style="font-size:56px;font-family:Verdana,Segoe UI,sans-serif;font-weight:700;letter-spacing:2px;">
    WAR30K ADVENTURE
  </text>
  <text x="252" y="184" fill="#d7dce5" style="font-size:30px;font-family:Verdana,Segoe UI,sans-serif;font-weight:600;letter-spacing:3px;">
    GARRO'S FLIGHT
  </text>
  <text x="252" y="230" fill="#99a6b8" style="font-size:20px;font-family:Verdana,Segoe UI,sans-serif;letter-spacing:1px;">
    LINUX C++ ACTION-ADVENTURE PROTOTYPE
  </text>
</svg>
